<svg width="21" height="21" viewBox="0 0 21 21" fill="none" xmlns="http://www.w3.org/2000/svg">
<path d="M10.1211 0.549316C4.60709 0.549316 0.121094 5.03532 0.121094 10.5493C0.121094 16.0633 4.60709 20.5493 10.1211 20.5493C15.6351 20.5493 20.1211 16.0633 20.1211 10.5493C20.1211 5.03532 15.6351 0.549316 10.1211 0.549316ZM8.12209 14.9623L5.11655 11.9632C4.72579 11.5733 4.725 10.9405 5.11478 10.5496C5.50481 10.1585 6.13811 10.1578 6.52902 10.548L8.12009 12.1363L12.7071 7.54932C13.0976 7.15885 13.7306 7.15885 14.1211 7.54932C14.5116 7.93978 14.5116 8.57285 14.1211 8.96332L8.12209 14.9623Z" fill="#2FAB73"/>
</svg>
