<svg width="16" height="17" viewBox="0 0 16 17" fill="none" xmlns="http://www.w3.org/2000/svg">
<path d="M14.1892 6.16515L10.222 5.58859L8.44859 1.99328C8.40015 1.89484 8.32046 1.81515 8.22203 1.76672C7.97515 1.64484 7.67515 1.7464 7.55171 1.99328L5.77828 5.58859L1.81109 6.16515C1.70171 6.18078 1.60171 6.23234 1.52515 6.31047C1.43259 6.4056 1.38159 6.53359 1.38334 6.66631C1.3851 6.79904 1.43948 6.92563 1.53453 7.01828L4.40484 9.81672L3.72671 13.7683C3.71081 13.8602 3.72098 13.9547 3.75608 14.0412C3.79117 14.1276 3.84978 14.2025 3.92526 14.2573C4.00074 14.3121 4.09007 14.3447 4.18312 14.3513C4.27617 14.358 4.36922 14.3384 4.45171 14.2948L8.00015 12.4292L11.5486 14.2948C11.6455 14.3464 11.758 14.3636 11.8658 14.3448C12.1377 14.298 12.3205 14.0402 12.2736 13.7683L11.5955 9.81672L14.4658 7.01828C14.5439 6.94172 14.5955 6.84172 14.6111 6.73234C14.6533 6.4589 14.4627 6.20578 14.1892 6.16515Z" fill="#FEA250"/>
</svg>
